<svg width="36" height="24" viewBox="0 0 36 24" fill="none" xmlns="http://www.w3.org/2000/svg">
<rect x="0.5" y="0.5" width="35" height="23" rx="5.5" fill="#1F72CD" stroke="#D9D9D9"/>
<path fill-rule="evenodd" clip-rule="evenodd" d="M6.45393 8.5L3.08569 15.7467H7.11794L7.61782 14.5913H8.76044L9.26032 15.7467H13.6987V14.8649L14.0942 15.7467H16.3901L16.7855 14.8462V15.7467H26.0162L27.1386 14.6213L28.1895 15.7467L32.9306 15.7561L29.5517 12.1436L32.9306 8.5H28.2631L27.1705 9.60463L26.1526 8.5H16.1109L15.2486 10.3704L14.3661 8.5H10.3423V9.35186L9.89464 8.5H6.45393ZM20.238 9.52905H25.5386L27.1598 11.2316L28.8333 9.52905H30.4545L27.9913 12.1426L30.4545 14.726H28.7598L27.1386 13.0036L25.4565 14.726H20.238V9.52905ZM21.5469 11.555V10.6057V10.6048H24.8544L26.2976 12.1229L24.7904 13.6493H21.5469V12.613H24.4387V11.555H21.5469ZM7.23415 9.52905H9.19965L11.4338 14.4431V9.52905H13.5869L15.3126 13.0524L16.9029 9.52905H19.0453V14.7291H17.7417L17.7311 10.6544L15.8306 14.7291H14.6644L12.7533 10.6544V14.7291H10.0715L9.56311 13.5633H6.81633L6.30897 14.728H4.8721L7.23415 9.52905ZM7.28534 12.4856L8.1903 10.4089L9.0942 12.4856H7.28534Z" fill="white"/>
</svg>
