<svg width="36" height="24" viewBox="0 0 36 24" fill="none" xmlns="http://www.w3.org/2000/svg">
<rect x="0.5" y="0.5" width="35" height="23" rx="5.5" fill="white" stroke="#D9D9D9"/>
<path fill-rule="evenodd" clip-rule="evenodd" d="M8.58464 8.93296C9.06811 8.97261 9.55158 8.69505 9.85375 8.34316C10.1509 7.98135 10.3473 7.49563 10.2969 7C9.86886 7.01983 9.34006 7.27755 9.03789 7.63936C8.7609 7.95161 8.5242 8.45715 8.58464 8.93296ZM14.3359 15.3167V7.5898H17.2821C18.803 7.5898 19.8656 8.62071 19.8656 10.1274C19.8656 11.6341 18.7829 12.675 17.2418 12.675H15.5547V15.3167H14.3359ZM10.2919 9.02712C9.86592 9.003 9.47728 9.15319 9.16337 9.2745C8.96135 9.35256 8.79029 9.41867 8.66014 9.41867C8.51409 9.41867 8.33596 9.34903 8.13596 9.27084C7.8739 9.16838 7.57428 9.05124 7.26009 9.05686C6.53992 9.06677 5.87011 9.46823 5.50247 10.1076C4.74705 11.3863 5.30606 13.2796 6.0363 14.3205C6.39387 14.8359 6.82194 15.4009 7.38599 15.3811C7.63414 15.3719 7.81264 15.2973 7.99738 15.2202C8.21006 15.1314 8.43099 15.0391 8.77597 15.0391C9.10899 15.0391 9.32026 15.129 9.52307 15.2152C9.71592 15.2973 9.9011 15.376 10.176 15.3712C10.7602 15.3613 11.1279 14.8557 11.4854 14.3403C11.8713 13.7871 12.0409 13.2472 12.0666 13.1652L12.0666 13.1652L12.0696 13.1557C12.069 13.1551 12.0642 13.153 12.0558 13.1492C11.9268 13.0911 10.9409 12.6469 10.9314 11.4557C10.922 10.4559 11.7135 9.94935 11.8381 9.86961C11.8456 9.86476 11.8507 9.86149 11.8531 9.85978C11.3494 9.12625 10.5638 9.04695 10.2919 9.02712ZM22.0917 15.3761C22.8572 15.3761 23.5672 14.9945 23.8896 14.3898H23.9147V15.3167H25.0428V11.4706C25.0428 10.3554 24.1363 9.63675 22.7413 9.63675C21.447 9.63675 20.4902 10.3653 20.4549 11.3665H21.5528C21.6434 10.8907 22.0917 10.5784 22.7061 10.5784C23.4514 10.5784 23.8694 10.9204 23.8694 11.5499V11.9761L22.3485 12.0653C20.9333 12.1496 20.1678 12.7196 20.1678 13.7108C20.1678 14.712 20.9585 15.3761 22.0917 15.3761ZM22.4189 14.4592C21.7693 14.4592 21.3563 14.1519 21.3563 13.6811C21.3563 13.1954 21.7542 12.9129 22.5146 12.8683L23.8693 12.784V13.2202C23.8693 13.9438 23.2449 14.4592 22.4189 14.4592ZM28.7847 15.619C28.2962 16.9721 27.7371 17.4181 26.5486 17.4181C26.458 17.4181 26.1558 17.4082 26.0853 17.3884V16.4616C26.1608 16.4715 26.3472 16.4814 26.4428 16.4814C26.9817 16.4814 27.2839 16.2584 27.4702 15.6785L27.581 15.3365L25.5162 9.7111H26.7903L28.2256 14.2759H28.2508L29.6861 9.7111H30.925L28.7847 15.619ZM15.5546 8.60088H16.9597C18.0172 8.60088 18.6216 9.15599 18.6216 10.1324C18.6216 11.1088 18.0172 11.6688 16.9546 11.6688H15.5546V8.60088Z" fill="black"/>
</svg>
