<svg width="7" height="14" viewBox="0 0 7 14" fill="none" xmlns="http://www.w3.org/2000/svg">
<path fillRule="evenodd" clipRule="evenodd" d="M0.146893 13.354C0.10033 13.3075 0.0633873 13.2523 0.0381808 13.1916C0.0129744 13.1308 -1.902e-08 13.0657 -2.18948e-08 13C-2.47695e-08 12.9342 0.0129744 12.8691 0.0381808 12.8083C0.0633872 12.7476 0.10033 12.6924 0.146893 12.646L5.79389 6.99996L0.146893 1.35396C0.100405 1.30747 0.0635287 1.25228 0.0383696 1.19154C0.0132105 1.13081 0.00026124 1.0657 0.000261237 0.999961C0.000261234 0.934217 0.0132105 0.869117 0.0383696 0.808377C0.0635287 0.747638 0.100405 0.692449 0.146893 0.645961C0.193381 0.599473 0.24857 0.562596 0.309309 0.537437C0.370049 0.512279 0.435149 0.49933 0.500893 0.49933C0.566637 0.49933 0.631737 0.512279 0.692477 0.537437C0.753216 0.562596 0.808405 0.599473 0.854893 0.645961L6.85489 6.64596C6.90146 6.69241 6.9384 6.74758 6.96361 6.80833C6.98881 6.86907 7.00179 6.93419 7.00179 6.99996C7.00179 7.06573 6.98881 7.13085 6.96361 7.19159C6.9384 7.25234 6.90146 7.30751 6.85489 7.35396L0.854894 13.354C0.808448 13.4005 0.753272 13.4375 0.692527 13.4627C0.631782 13.4879 0.566661 13.5009 0.500894 13.5009C0.435126 13.5009 0.370005 13.4879 0.30926 13.4627C0.248515 13.4375 0.193339 13.4005 0.146893 13.354Z" fill="black"/>
</svg>
