<svg width="39" height="41" viewBox="0 0 39 41" fill="none" xmlns="http://www.w3.org/2000/svg">
<path d="M29.2917 15.9342L29.1432 13.9324C29.0071 12.0985 27.4224 10.6777 25.513 10.6777H21.6229M7.75 35.2084H5.51462C3.40251 35.2084 1.73395 33.4829 1.88444 31.4543L3.18424 13.9324C3.32027 12.0985 4.90503 10.6777 6.81442 10.6777H10.7045M10.7045 10.6777V7.17327C10.7045 4.27014 13.1487 1.91669 16.1637 1.91669C19.1787 1.91669 21.6229 4.27014 21.6229 7.17327V10.6777M10.7045 10.6777H21.6229M29.2917 27.375C29.2917 29.5381 27.5381 31.2917 25.375 31.2917C23.2119 31.2917 21.4583 29.5381 21.4583 27.375M17.5417 39.125H33.2083C35.3714 39.125 37.125 37.3715 37.125 35.2084V25.4167C37.125 23.2536 35.3714 21.5 33.2083 21.5H17.5417C15.3786 21.5 13.625 23.2536 13.625 25.4167V35.2084C13.625 37.3715 15.3786 39.125 17.5417 39.125Z" stroke="black" stroke-width="2" stroke-linecap="round"/>
</svg>
