<svg width="20" height="19" viewBox="0 0 20 19" fill="none" xmlns="http://www.w3.org/2000/svg">
<path d="M19.08 4.12217C18.9072 3.82279 18.6598 3.5733 18.3618 3.39804C18.0639 3.22278 17.7256 3.12773 17.38 3.12217H4.58L4 0.862168C3.9414 0.644007 3.81066 0.452113 3.62908 0.31774C3.44749 0.183368 3.22576 0.114435 3 0.122169H1C0.734784 0.122169 0.48043 0.227525 0.292893 0.415062C0.105357 0.602598 0 0.856952 0 1.12217C0 1.38739 0.105357 1.64174 0.292893 1.82928C0.48043 2.01681 0.734784 2.12217 1 2.12217H2.24L5 12.3822C5.0586 12.6003 5.18934 12.7922 5.37092 12.9266C5.55251 13.061 5.77424 13.1299 6 13.1222H15C15.1847 13.1216 15.3656 13.0699 15.5227 12.9728C15.6798 12.8758 15.8069 12.7371 15.89 12.5722L19.17 6.01217C19.3122 5.71418 19.3783 5.38564 19.3626 5.05585C19.3469 4.72607 19.2498 4.4053 19.08 4.12217ZM14.38 11.1222H6.76L5.13 5.12217H17.38L14.38 11.1222Z" fill="#1E1E1E"/>
<path d="M5.5 18.1221C6.32843 18.1221 7 17.4505 7 16.6221C7 15.7936 6.32843 15.1221 5.5 15.1221C4.67157 15.1221 4 15.7936 4 16.6221C4 17.4505 4.67157 18.1221 5.5 18.1221Z" fill="#1E1E1E"/>
<path d="M15.5 18.1221C16.3284 18.1221 17 17.4505 17 16.6221C17 15.7936 16.3284 15.1221 15.5 15.1221C14.6716 15.1221 14 15.7936 14 16.6221C14 17.4505 14.6716 18.1221 15.5 18.1221Z" fill="#1E1E1E"/>
</svg>
