<svg width="17" height="16" viewBox="0 0 17 16" fill="none" xmlns="http://www.w3.org/2000/svg">
<g clip-path="url(#clip0_1213_12606)">
<path d="M16.5781 8C16.5781 3.71875 13.1094 0.25 8.82812 0.25C4.54688 0.25 1.07812 3.71875 1.07812 8C1.07812 11.8681 3.91219 15.0744 7.61719 15.6562V10.2403H5.64844V8H7.61719V6.2925C7.61719 4.35031 8.77344 3.2775 10.5444 3.2775C11.3925 3.2775 12.2794 3.42875 12.2794 3.42875V5.335H11.3019C10.3394 5.335 10.0391 5.9325 10.0391 6.54531V8H12.1884L11.8447 10.2403H10.0391V15.6562C13.7441 15.0744 16.5781 11.8681 16.5781 8Z" fill="white"/>
</g>
<defs>
<clipPath id="clip0_1213_12606">
<rect width="16" height="16" fill="white" transform="translate(0.828125)"/>
</clipPath>
</defs>
</svg>
