<svg width="60" height="60" viewBox="0 0 60 60" fill="none" xmlns="http://www.w3.org/2000/svg">
<g clip-path="url(#clip0_2090_4886)">
<path d="M26.2505 44.9999C25.5602 44.9999 25.0004 44.4414 25.0004 43.7502C25.0004 41.6825 26.6827 40.0002 28.7504 40.0002H40.0003C41.3791 40.0002 42.5001 38.8787 42.5001 37.4999C42.5001 36.1212 41.3791 35.0001 40.0003 35.0001H28.7504C28.6167 35.0001 28.483 34.9777 28.3553 34.9351L24.7981 33.75H18.7506C16.6952 33.75 14.7406 34.5277 13.3842 35.884L12.1341 37.1337C11.6457 37.6226 10.8556 37.6226 10.3667 37.1337C9.87778 36.6453 9.87778 35.8552 10.3667 35.3663L11.6168 34.1162C13.4378 32.2952 16.0379 31.2501 18.7506 31.2501H25.0004C25.134 31.2501 25.2677 31.2726 25.3954 31.3151L28.9527 32.5003H40.0003C42.7579 32.5003 45.0004 34.7424 45.0004 37.4999C45.0004 40.2575 42.7579 42.5001 40.0003 42.5001H28.7504C28.0614 42.5001 27.5002 43.0599 27.5002 43.7502C27.5002 44.4414 26.9404 44.9999 26.2505 44.9999Z" fill="white"/>
<path d="M19.6336 52.1337L17.8662 50.3662L20.366 47.8664C20.6 47.6311 20.9186 47.5002 21.25 47.5002H38.3039L51.5497 36.6627L57.09 27.7991C56.7974 27.6279 56.4898 27.5001 56.25 27.5001C55.1422 27.5001 54.2674 27.5001 52.1338 29.6338L49.6335 32.1341C49.5612 32.2064 49.481 32.2686 49.3936 32.3213L43.1438 36.0713L41.8575 33.9276L47.9759 30.2563L50.3673 27.865C53.0209 25.2113 54.5398 25.0003 56.25 25.0003C57.9684 25.0003 59.4685 26.4514 59.6337 26.6162C60.0448 27.0277 60.1185 27.6691 59.81 28.1625L53.5597 38.1628C53.4874 38.2777 53.3972 38.3811 53.291 38.4676L39.5412 49.7176C39.3174 49.9002 39.0372 50 38.7497 50H21.7677L19.6336 52.1337Z" fill="white"/>
<path d="M16.2501 59.9999C15.9301 59.9999 15.6101 59.8777 15.3666 59.6337C14.8777 59.1452 14.8777 58.3551 15.3666 57.8663L19.4828 53.7501L6.25027 40.5176L2.13408 44.6337C1.64519 45.1226 0.855098 45.1226 0.366667 44.6337C-0.122222 44.1453 -0.122222 43.3552 0.366667 42.8663L5.36634 37.8662C5.85523 37.3778 6.64532 37.3778 7.13421 37.8662L22.1341 52.8661C22.6226 53.355 22.6226 54.1451 22.1341 54.634L17.134 59.6337C16.89 59.8777 16.57 59.9999 16.2501 59.9999Z" fill="white"/>
<path d="M44.9989 28.7503C44.7852 28.7503 44.5691 28.6963 44.3714 28.58C43.774 28.2326 43.5726 27.4663 43.92 26.8703C45.4439 24.2537 46.25 21.4462 46.25 18.75C46.25 9.79026 38.9602 2.50041 30.0004 2.50041C21.0402 2.50041 13.7503 9.79026 13.7503 18.75C13.7503 21.4462 14.5564 24.2537 16.0803 26.8712C16.4278 27.4676 16.2254 28.2326 15.629 28.5814C15.0316 28.9274 14.2681 28.7279 13.9192 28.13C12.1743 25.1312 11.2505 21.8875 11.2505 18.75C11.2505 8.41149 19.6614 0.00012207 30.0004 0.00012207C40.3389 0.00012207 48.7503 8.41149 48.7503 18.75C48.7503 21.8875 47.8275 25.1312 46.0802 28.1291C45.849 28.5278 45.4288 28.7503 44.9989 28.7503Z" fill="white"/>
<path d="M32.5001 27.5002H27.5C25.4327 27.5002 23.75 25.8179 23.75 23.7502C23.75 23.0604 24.3103 22.5001 25.0001 22.5001C25.69 22.5001 26.2503 23.0604 26.2503 23.7502C26.2503 24.4391 26.8115 25.0004 27.5 25.0004H32.5001C33.19 25.0004 33.7503 24.4391 33.7503 23.7502V21.2504C33.7503 20.5614 33.19 20.0002 32.5001 20.0002H27.5C25.4327 20.0002 23.75 18.318 23.75 16.2502V13.7504C23.75 11.6827 25.4327 10.0004 27.5 10.0004H32.5001C34.5678 10.0004 36.2501 11.6827 36.2501 13.7504C36.2501 14.4403 35.6912 15.0001 34.9999 15.0001C34.3087 15.0001 33.7503 14.4403 33.7503 13.7504C33.7503 13.0615 33.19 12.5003 32.5001 12.5003H27.5C26.8115 12.5003 26.2503 13.0615 26.2503 13.7504V16.2502C26.2503 16.9392 26.8115 17.5004 27.5 17.5004H32.5001C34.5678 17.5004 36.2501 19.1827 36.2501 21.2504V23.7502C36.2501 25.8179 34.5678 27.5002 32.5001 27.5002Z" fill="white"/>
<path d="M30.0001 30C29.3098 30 28.75 29.4402 28.75 28.7503V8.75027C28.75 8.06042 29.3098 7.50012 30.0001 7.50012C30.69 7.50012 31.2498 8.06042 31.2498 8.75027V28.7503C31.2498 29.4402 30.69 30 30.0001 30Z" fill="white"/>
<path d="M40 17.5004H42.4998V20.0002H40V17.5004Z" fill="white"/>
<path d="M17.5 17.5004H19.9998V20.0002H17.5V17.5004Z" fill="white"/>
</g>
<defs>
<clipPath id="clip0_2090_4886">
<rect width="60" height="60" fill="white"/>
</clipPath>
</defs>
</svg>
