<svg width="36" height="24" viewBox="0 0 36 24" fill="none" xmlns="http://www.w3.org/2000/svg">
<rect x="0.5" y="0.5" width="35" height="23" rx="5.5" fill="white" stroke="#D9D9D9"/>
<path d="M28.2827 14.319H28.3013L29.8022 10.656H30.8569L27.6138 17.9997H26.6128L27.8188 15.4313L25.6899 10.656H26.7456L28.2827 14.319ZM23.2065 10.489C23.9239 10.489 24.4908 10.6798 24.9067 11.0544C25.3225 11.429 25.5278 11.9522 25.5278 12.612V15.7585H24.5991V15.0505H24.5571C24.1532 15.6333 23.6219 15.9245 22.9526 15.9245C22.3861 15.9244 21.9037 15.7584 21.5239 15.4255C21.1502 15.1163 20.9396 14.6581 20.9517 14.1765C20.9517 13.6473 21.1563 13.2309 21.5601 12.9157C21.964 12.6005 22.5069 12.446 23.1821 12.446C23.7608 12.446 24.2312 12.5525 24.605 12.7546V12.5349C24.6049 12.2079 24.4607 11.8983 24.2075 11.6843C23.9484 11.4584 23.6165 11.3338 23.2729 11.3337C22.7305 11.3337 22.3023 11.5597 21.9888 12.0114L21.1323 11.4821C21.5905 10.8222 22.2842 10.489 23.2065 10.489ZM18.606 8.30048C19.2269 8.28859 19.8299 8.52086 20.27 8.94892C21.1503 9.75768 21.2044 11.1197 20.3784 11.9938L20.27 12.1013C19.8179 12.5233 19.263 12.737 18.606 12.737H17.0024V15.7585H16.0317V8.30048H18.606ZM23.3335 13.2185C22.9415 13.2185 22.6096 13.3144 22.3442 13.4987C22.0851 13.683 21.9527 13.9147 21.9526 14.194C21.9526 14.4438 22.073 14.6763 22.272 14.819C22.489 14.9854 22.7546 15.074 23.0259 15.0681C23.4357 15.068 23.8273 14.9079 24.1167 14.6227C24.4362 14.3255 24.5991 13.9743 24.5991 13.57C24.2977 13.3323 23.876 13.2125 23.3335 13.2185ZM17.0024 11.821H18.6304C18.9921 11.8329 19.3421 11.6908 19.5894 11.4352C20.0959 10.9179 20.0837 10.0852 19.5591 9.58564C19.3119 9.34777 18.9801 9.2165 18.6304 9.2165H17.0024V11.821Z" fill="#3C4043"/>
<path d="M13.6513 12.0829C13.6513 11.7916 13.6272 11.5002 13.5789 11.2147H9.48523V12.862H11.8305C11.7341 13.3912 11.4205 13.867 10.9623 14.1643V15.2347H12.3611C13.181 14.4914 13.6513 13.3912 13.6513 12.0829Z" fill="#4285F4"/>
<path d="M9.48543 16.2695C10.6551 16.2695 11.6438 15.8889 12.3613 15.2347L10.9625 14.1643C10.5707 14.426 10.0702 14.5747 9.48543 14.5747C8.35197 14.5747 7.39336 13.8194 7.0497 12.8085H5.60876V13.9146C6.34431 15.3596 7.84554 16.2695 9.48543 16.2695Z" fill="#34A853"/>
<path d="M7.04981 12.8085C6.86891 12.2792 6.86891 11.7024 7.04981 11.1672V10.067H5.60864C4.98755 11.2742 4.98755 12.7014 5.60864 13.9086L7.04981 12.8085Z" fill="#FBBC04"/>
<path d="M9.48543 9.40102C10.1064 9.38912 10.7033 9.62105 11.1494 10.0433L12.3914 8.81824C11.6016 8.09273 10.5646 7.6943 9.48543 7.70619C7.84554 7.70619 6.34431 8.62199 5.60876 10.0671L7.0497 11.1732C7.39336 10.1563 8.35197 9.40102 9.48543 9.40102Z" fill="#EA4335"/>
</svg>
