<svg width="17" height="16" viewBox="0 0 17 16" fill="none" xmlns="http://www.w3.org/2000/svg">
<path d="M8.20237 4.40635C6.21487 4.40635 4.61174 6.00947 4.61174 7.99697C4.61174 9.98447 6.21487 11.5876 8.20237 11.5876C10.1899 11.5876 11.793 9.98447 11.793 7.99697C11.793 6.00947 10.1899 4.40635 8.20237 4.40635ZM8.20237 10.3313C6.91799 10.3313 5.86799 9.28447 5.86799 7.99697C5.86799 6.70947 6.91487 5.6626 8.20237 5.6626C9.48987 5.6626 10.5367 6.70947 10.5367 7.99697C10.5367 9.28447 9.48674 10.3313 8.20237 10.3313ZM12.7774 4.25947C12.7774 4.7251 12.4024 5.09697 11.9399 5.09697C11.4742 5.09697 11.1024 4.72197 11.1024 4.25947C11.1024 3.79697 11.4774 3.42197 11.9399 3.42197C12.4024 3.42197 12.7774 3.79697 12.7774 4.25947ZM15.1555 5.10947C15.1024 3.9876 14.8461 2.99385 14.0242 2.1751C13.2055 1.35635 12.2117 1.1001 11.0899 1.04385C9.93362 0.978223 6.46799 0.978223 5.31174 1.04385C4.19299 1.09697 3.19924 1.35322 2.37737 2.17197C1.55549 2.99072 1.30237 3.98447 1.24612 5.10635C1.18049 6.2626 1.18049 9.72822 1.24612 10.8845C1.29924 12.0063 1.55549 13.0001 2.37737 13.8188C3.19924 14.6376 4.18987 14.8938 5.31174 14.9501C6.46799 15.0157 9.93362 15.0157 11.0899 14.9501C12.2117 14.897 13.2055 14.6407 14.0242 13.8188C14.843 13.0001 15.0992 12.0063 15.1555 10.8845C15.2211 9.72822 15.2211 6.26572 15.1555 5.10947ZM13.6617 12.1251C13.418 12.7376 12.9461 13.2095 12.3305 13.4563C11.4086 13.822 9.22112 13.7376 8.20237 13.7376C7.18362 13.7376 4.99299 13.8188 4.07424 13.4563C3.46174 13.2126 2.98987 12.7407 2.74299 12.1251C2.37737 11.2032 2.46174 9.01572 2.46174 7.99697C2.46174 6.97822 2.38049 4.7876 2.74299 3.86885C2.98674 3.25635 3.45862 2.78447 4.07424 2.5376C4.99612 2.17197 7.18362 2.25635 8.20237 2.25635C9.22112 2.25635 11.4117 2.1751 12.3305 2.5376C12.943 2.78135 13.4149 3.25322 13.6617 3.86885C14.0274 4.79072 13.943 6.97822 13.943 7.99697C13.943 9.01572 14.0274 11.2063 13.6617 12.1251Z" fill="white"/>
</svg>
