<svg width="17" height="16" viewBox="0 0 17 16" fill="none" xmlns="http://www.w3.org/2000/svg">
<path d="M14.8906 1H2.8875C2.3375 1 1.89062 1.45313 1.89062 2.00938V13.9906C1.89062 14.5469 2.3375 15 2.8875 15H14.8906C15.4406 15 15.8906 14.5469 15.8906 13.9906V2.00938C15.8906 1.45313 15.4406 1 14.8906 1ZM6.12187 13H4.04688V6.31875H6.125V13H6.12187ZM5.08437 5.40625C4.41875 5.40625 3.88125 4.86562 3.88125 4.20312C3.88125 3.54063 4.41875 3 5.08437 3C5.74687 3 6.2875 3.54063 6.2875 4.20312C6.2875 4.86875 5.75 5.40625 5.08437 5.40625ZM13.9 13H11.825V9.75C11.825 8.975 11.8094 7.97813 10.7469 7.97813C9.66562 7.97813 9.5 8.82188 9.5 9.69375V13H7.425V6.31875H9.41563V7.23125H9.44375C9.72187 6.70625 10.4 6.15312 11.4094 6.15312C13.5094 6.15312 13.9 7.5375 13.9 9.3375V13Z" fill="white"/>
</svg>
