<svg width="36" height="24" viewBox="0 0 36 24" fill="none" xmlns="http://www.w3.org/2000/svg">
<rect x="0.5" y="0.5" width="35" height="23" rx="5.5" fill="white" stroke="#D9D9D9"/>
<path d="M22.8097 5C26.686 5 29.8282 8.09091 29.8282 11.9033C29.8281 15.7156 26.6859 18.8057 22.8097 18.8057C21.0718 18.8056 19.4827 18.1833 18.257 17.1543C17.0312 18.1832 15.442 18.8057 13.7042 18.8057C9.82808 18.8056 6.68585 15.7155 6.68567 11.9033C6.68567 8.09097 9.82797 5.0001 13.7042 5C15.4417 5 17.0313 5.62182 18.257 6.65039C19.4827 5.62175 21.0721 5.00002 22.8097 5Z" fill="#ED0006"/>
<path d="M22.8098 5C26.6861 5.00002 29.8284 8.09092 29.8284 11.9033C29.8282 15.7156 26.686 18.8056 22.8098 18.8057C21.072 18.8057 19.4829 18.1832 18.2571 17.1543C19.7654 15.8882 20.7228 14.0064 20.7229 11.9033C20.7229 9.79981 19.7658 7.91652 18.2571 6.65039C19.4828 5.62178 21.0723 5 22.8098 5Z" fill="#F9A000"/>
<path d="M18.257 6.651C19.7656 7.91713 20.7228 9.79955 20.7228 11.903C20.7228 14.0061 19.7653 15.8878 18.257 17.1539C16.7488 15.8878 15.7911 14.006 15.7911 11.903C15.7911 9.79966 16.7485 7.91712 18.257 6.651Z" fill="#FF5E00"/>
</svg>
