<svg width="7" height="13" viewBox="0 0 7 13" fill="none" xmlns="http://www.w3.org/2000/svg">
<path fillRule="evenodd" clipRule="evenodd" d="M0.146893 12.8531C0.10033 12.8067 0.0633873 12.7515 0.0381808 12.6907C0.0129744 12.63 -1.902e-08 12.5649 -2.18948e-08 12.4991C-2.47695e-08 12.4333 0.0129744 12.3682 0.0381808 12.3075C0.0633872 12.2467 0.10033 12.1916 0.146893 12.1451L5.79389 6.49911L0.146893 0.853106C0.100405 0.806619 0.0635287 0.751429 0.0383696 0.69069C0.0132105 0.629951 0.00026124 0.56485 0.000261237 0.499106C0.000261234 0.433363 0.0132105 0.368262 0.0383696 0.307523C0.0635287 0.246783 0.100405 0.191594 0.146893 0.145106C0.193381 0.0986184 0.24857 0.061742 0.309309 0.0365829C0.370049 0.0114238 0.435149 -0.00152494 0.500893 -0.00152495C0.566637 -0.00152495 0.631737 0.0114238 0.692477 0.0365829C0.753216 0.061742 0.808405 0.0986183 0.854893 0.145106L6.85489 6.14511C6.90146 6.19155 6.9384 6.24673 6.96361 6.30747C6.98881 6.36822 7.00179 6.43334 7.00179 6.49911C7.00179 6.56487 6.98881 6.62999 6.96361 6.69074C6.9384 6.75148 6.90146 6.80666 6.85489 6.85311L0.854894 12.8531C0.808448 12.8997 0.753272 12.9366 0.692527 12.9618C0.631782 12.987 0.566661 13 0.500894 13C0.435126 13 0.370005 12.987 0.30926 12.9618C0.248515 12.9366 0.193339 12.8997 0.146893 12.8531Z" fill="black"/>
</svg>
