<svg width="60" height="60" viewBox="0 0 60 60" fill="none" xmlns="http://www.w3.org/2000/svg">
<path d="M57.5 41.25V45C57.5 45.6903 56.9403 46.25 56.25 46.25C55.5597 46.25 55 45.6903 55 45V41.25C55 39.1821 53.3179 37.5 51.25 37.5H43.75C42.8351 37.5 41.9537 37.8333 41.2683 38.4387C40.7489 38.8965 39.9615 38.847 39.5038 38.3295C39.0466 37.8119 39.0961 37.0221 39.613 36.5649C40.7562 35.556 42.2253 35 43.75 35H51.25C54.696 35 57.5 37.804 57.5 41.25ZM41.25 26.25C41.25 22.804 44.054 20 47.5 20C50.946 20 53.75 22.804 53.75 26.25C53.75 29.696 50.946 32.5 47.5 32.5C44.054 32.5 41.25 29.696 41.25 26.25ZM43.75 26.25C43.75 28.3179 45.4321 30 47.5 30C49.5679 30 51.25 28.3179 51.25 26.25C51.25 24.1821 49.5679 22.5 47.5 22.5C45.4321 22.5 43.75 24.1821 43.75 26.25ZM16.25 35H8.75C5.30395 35 2.5 37.804 2.5 41.25V45C2.5 45.6903 3.05969 46.25 3.75 46.25C4.44031 46.25 5 45.6903 5 45V41.25C5 39.1821 6.68213 37.5 8.75 37.5H16.25C17.1649 37.5 18.0463 37.8333 18.7317 38.4387C19.2499 38.8959 20.0378 38.8477 20.4962 38.3295C20.9534 37.8119 20.9039 37.0221 20.387 36.5649C19.2438 35.556 17.7747 35 16.25 35ZM6.25 26.25C6.25 22.804 9.05395 20 12.5 20C15.946 20 18.75 22.804 18.75 26.25C18.75 29.696 15.946 32.5 12.5 32.5C9.05395 32.5 6.25 29.696 6.25 26.25ZM8.75 26.25C8.75 28.3179 10.4321 30 12.5 30C14.5679 30 16.25 28.3179 16.25 26.25C16.25 24.1821 14.5679 22.5 12.5 22.5C10.4321 22.5 8.75 24.1821 8.75 26.25Z" fill="white"/>
<path d="M43.75 43.75V45C43.75 45.6903 43.1903 46.25 42.5 46.25C41.8097 46.25 41.25 45.6903 41.25 45V43.75C41.25 38.9252 37.3248 35 32.5 35H27.5C22.6752 35 18.75 38.9252 18.75 43.75V45C18.75 45.6903 18.1903 46.25 17.5 46.25C16.8097 46.25 16.25 45.6903 16.25 45V43.75C16.25 37.547 21.297 32.5 27.5 32.5H32.5C38.703 32.5 43.75 37.547 43.75 43.75ZM21.25 21.25C21.25 16.4252 25.1752 12.5 30 12.5C34.8248 12.5 38.75 16.4252 38.75 21.25C38.75 26.0748 34.8248 30 30 30C25.1752 30 21.25 26.0748 21.25 21.25ZM23.75 21.25C23.75 24.696 26.554 27.5 30 27.5C33.446 27.5 36.25 24.696 36.25 21.25C36.25 17.804 33.446 15 30 15C26.554 15 23.75 17.804 23.75 21.25ZM30 43.75C29.3097 43.75 28.75 44.3097 28.75 45V46.25C28.75 46.9403 29.3097 47.5 30 47.5C30.6903 47.5 31.25 46.9403 31.25 46.25V45C31.25 44.3097 30.6903 43.75 30 43.75ZM30 37.5C29.3097 37.5 28.75 38.0597 28.75 38.75V40C28.75 40.6903 29.3097 41.25 30 41.25C30.6903 41.25 31.25 40.6903 31.25 40V38.75C31.25 38.0597 30.6903 37.5 30 37.5Z" fill="white"/>
</svg>
