<svg width="36" height="24" viewBox="0 0 36 24" fill="none" xmlns="http://www.w3.org/2000/svg">
<rect x="0.5" y="0.5" width="35" height="23" rx="5.5" fill="white" stroke="#D9D9D9"/>
<path d="M11.1371 5.00073H16.8104C17.6024 5.00073 18.0949 5.62831 17.9102 6.40082L15.2688 17.4262C15.0824 18.196 14.2895 18.8241 13.497 18.8241H7.8242C7.03335 18.8241 6.53968 18.196 6.72442 17.4262L9.36689 6.40082C9.55164 5.62831 10.3441 5.00073 11.1371 5.00073Z" fill="#E21836"/>
<path d="M16.338 5H22.8622C23.654 5 23.297 5.62758 23.1107 6.40009L20.4698 17.4255C20.2845 18.1953 20.3423 18.8234 19.5488 18.8234H13.0246C12.2311 18.8234 11.7401 18.1953 11.9265 17.4255L14.5673 6.40009C14.7548 5.62758 15.5456 5 16.338 5Z" fill="#00447C"/>
<path d="M22.6036 5H28.277C29.07 5 29.5626 5.62758 29.3763 6.40009L26.7354 17.4255C26.549 18.1953 25.7555 18.8234 24.9626 18.8234H19.2918C18.4984 18.8234 18.0062 18.1953 18.1921 17.4255L20.8334 6.40009C21.0182 5.62758 21.8101 5 22.6036 5Z" fill="#007B84"/>
<path d="M12.6185 8.53326C12.0351 8.53904 11.8628 8.53326 11.8077 8.52062C11.7866 8.61836 11.3929 10.384 11.3918 10.3855C11.307 10.7427 11.2453 10.9973 11.0358 11.1617C10.9169 11.2573 10.7781 11.3035 10.6171 11.3035C10.3584 11.3035 10.2077 11.1786 10.1824 10.9417L10.1775 10.8603C10.1775 10.8603 10.2563 10.3818 10.2563 10.3792C10.2563 10.3792 10.6695 8.77015 10.7435 8.55746C10.7474 8.54536 10.7485 8.53904 10.7495 8.53326C9.9452 8.54012 9.80263 8.53326 9.79281 8.52062C9.78741 8.53797 9.7675 8.63772 9.7675 8.63772L9.3456 10.4512L9.30937 10.605L9.23926 11.1081C9.23926 11.2573 9.2694 11.3791 9.32942 11.4821C9.52163 11.8087 10.0699 11.8576 10.3801 11.8576C10.7797 11.8576 11.1546 11.7751 11.408 11.6244C11.8477 11.3717 11.9628 10.9769 12.0654 10.626L12.1129 10.446C12.1129 10.446 12.5386 8.77485 12.6109 8.55746C12.6137 8.54536 12.6148 8.53904 12.6185 8.53326ZM14.0667 9.88137C13.9641 9.88137 13.7766 9.90557 13.6082 9.98583C13.547 10.0164 13.4892 10.0516 13.4282 10.0867L13.4833 9.89347L13.4531 9.86094C13.096 9.93125 13.016 9.94066 12.6861 9.98583L12.6584 10.0037C12.6201 10.3125 12.5861 10.5447 12.4441 11.1517C12.39 11.3754 12.3339 11.6013 12.2776 11.8245L12.2928 11.8528C12.6309 11.8355 12.7335 11.8355 13.0274 11.8402L13.0511 11.8151C13.0885 11.6291 13.0933 11.5856 13.176 11.209C13.2149 11.0305 13.2959 10.6381 13.3359 10.4985C13.4093 10.4654 13.4818 10.4329 13.5509 10.4329C13.7156 10.4329 13.6956 10.5725 13.6892 10.6282C13.6821 10.7216 13.6221 11.0268 13.5606 11.2888L13.5195 11.458C13.4909 11.5829 13.4595 11.7043 13.4309 11.8281L13.4433 11.8528C13.7766 11.8355 13.8782 11.8355 14.1628 11.8402L14.1963 11.8151C14.2477 11.5247 14.2628 11.447 14.3541 11.0241L14.4 10.8299C14.4892 10.4497 14.534 10.2569 14.4665 10.0998C14.3951 9.92385 14.2239 9.88137 14.0667 9.88137ZM15.6845 10.2794C15.5074 10.3125 15.3944 10.3346 15.2821 10.3488C15.1708 10.3662 15.0622 10.3819 14.891 10.405L14.8775 10.417L14.865 10.4265C14.8472 10.5505 14.8348 10.6576 14.8111 10.7836C14.7911 10.9139 14.7602 11.0619 14.71 11.2746C14.6712 11.4374 14.6511 11.4941 14.629 11.5514C14.6074 11.6087 14.5836 11.6643 14.5399 11.8245L14.5502 11.8392L14.5587 11.8528C14.7187 11.8454 14.8234 11.8402 14.931 11.8392C15.0385 11.8355 15.1498 11.8392 15.3221 11.8402L15.3371 11.8282L15.3533 11.815C15.3782 11.6707 15.3819 11.6318 15.3972 11.5614C15.4122 11.4858 15.4382 11.3812 15.502 11.1018C15.5321 10.9706 15.5657 10.8398 15.597 10.7059C15.6295 10.5725 15.6635 10.4412 15.6959 10.31L15.691 10.2941L15.6845 10.2794ZM15.6883 9.74272C15.5273 9.65036 15.2448 9.67967 15.0547 9.80725C14.8651 9.93228 14.8435 10.1097 15.0039 10.2033C15.1621 10.2931 15.4457 10.2664 15.6342 10.1377C15.8234 10.01 15.847 9.83414 15.6883 9.74272ZM16.6617 11.8818C16.9874 11.8818 17.3212 11.7945 17.5725 11.5356C17.7658 11.3256 17.8544 11.0131 17.8851 10.8845C17.9851 10.458 17.9073 10.2589 17.8095 10.1376C17.661 9.95279 17.3985 9.8935 17.1262 9.8935C16.9625 9.8935 16.5725 9.90923 16.2679 10.1823C16.0491 10.3792 15.9481 10.6465 15.8871 10.9028C15.8255 11.1638 15.7547 11.6339 16.1993 11.8088C16.3365 11.866 16.5342 11.8818 16.6617 11.8818ZM16.6363 10.9223C16.7114 10.5993 16.8 10.3283 17.0263 10.3283C17.2035 10.3283 17.2164 10.5299 17.1376 10.854C17.1235 10.9259 17.0588 11.1933 16.9712 11.3072C16.9101 11.3912 16.8378 11.4421 16.7578 11.4421C16.7341 11.4421 16.5926 11.4421 16.5904 11.2379C16.5893 11.1371 16.6104 11.0341 16.6363 10.9223ZM18.6992 11.8402L18.7247 11.8151C18.7607 11.6292 18.7667 11.5855 18.8466 11.209C18.8866 11.0305 18.9693 10.6382 19.0081 10.4985C19.0817 10.4653 19.1529 10.4328 19.2243 10.4328C19.3879 10.4328 19.368 10.5724 19.3615 10.6281C19.3555 10.7217 19.2955 11.0267 19.2329 11.2888L19.194 11.4579C19.1643 11.5829 19.1319 11.7042 19.1033 11.8281L19.1157 11.8529C19.4501 11.8355 19.5479 11.8355 19.8341 11.8402L19.8687 11.8151C19.9189 11.5246 19.9324 11.4469 20.0265 11.0242L20.0713 10.8298C20.1609 10.4496 20.2062 10.2569 20.1399 10.0999C20.0664 9.92389 19.8941 9.88141 19.7391 9.88141C19.6364 9.88141 19.4479 9.90548 19.2804 9.98587C19.2205 10.0164 19.1605 10.0515 19.1016 10.0867L19.1529 9.89351L19.1254 9.86084C18.7684 9.93129 18.6868 9.9407 18.3572 9.98587L18.3319 10.0038C18.292 10.3126 18.2595 10.5446 18.1175 11.1518C18.0634 11.3755 18.0072 11.6013 17.9511 11.8245L17.9662 11.8529C18.3048 11.8355 18.4059 11.8355 18.6992 11.8402ZM21.1559 11.8528C21.1769 11.7531 21.3018 11.1618 21.3029 11.1618C21.3029 11.1618 21.4092 10.7279 21.4157 10.7122C21.4157 10.7122 21.4492 10.667 21.4827 10.6491H21.5319C21.9964 10.6491 22.5209 10.6491 22.932 10.3551C23.2118 10.1535 23.403 9.85567 23.4883 9.49375C23.5105 9.40501 23.5268 9.29948 23.5268 9.19394C23.5268 9.05533 23.4981 8.9182 23.4155 8.81105C23.2058 8.52589 22.7883 8.52065 22.3064 8.5185C22.3049 8.5185 22.0688 8.52065 22.0688 8.52065C21.452 8.52804 21.2046 8.52589 21.1029 8.51379C21.0944 8.55749 21.0782 8.6352 21.0782 8.6352C21.0782 8.6352 20.8572 9.63088 20.8572 9.63249C20.8572 9.63249 20.3284 11.7494 20.3035 11.8492C20.8421 11.8429 21.063 11.8429 21.1559 11.8528ZM21.5654 10.0841C21.5654 10.0841 21.8003 9.09042 21.7992 9.09418L21.8068 9.04323L21.8101 9.00437L21.904 9.01379C21.904 9.01379 22.3886 9.05425 22.3999 9.05533C22.5911 9.12726 22.67 9.31265 22.6149 9.55465C22.5647 9.77581 22.4172 9.96174 22.2276 10.0515C22.0715 10.1276 21.8802 10.134 21.6832 10.134H21.5557L21.5654 10.0841ZM23.0282 10.9407C22.9661 11.198 22.8947 11.668 23.3371 11.8355C23.4782 11.8939 23.6045 11.9112 23.733 11.9049C23.8687 11.8978 23.9944 11.8316 24.1108 11.7364C24.1003 11.7755 24.0898 11.8147 24.0793 11.8539L24.0993 11.8791C24.4175 11.866 24.5162 11.866 24.861 11.8686L24.8922 11.8455C24.9426 11.5577 24.99 11.2784 25.1208 10.728C25.1846 10.4643 25.2482 10.2032 25.3136 9.94067L25.3034 9.91177C24.9474 9.9759 24.8523 9.98961 24.5099 10.0368L24.4839 10.0574C24.4804 10.0841 24.4768 10.1098 24.4735 10.1355C24.4203 10.0519 24.3431 9.98047 24.2241 9.93597C24.0718 9.87775 23.7142 9.95277 23.4068 10.2249C23.1908 10.4192 23.0871 10.6854 23.0282 10.9407ZM23.7757 10.9564C23.8519 10.6392 23.9395 10.3709 24.1663 10.3709C24.3097 10.3709 24.3852 10.4996 24.3698 10.719C24.3576 10.7737 24.3445 10.8314 24.3289 10.8966C24.3062 10.9908 24.2816 11.0842 24.2577 11.1778C24.2333 11.2418 24.205 11.3022 24.1739 11.3424C24.1155 11.4228 23.9767 11.4726 23.8967 11.4726C23.8741 11.4726 23.7341 11.4726 23.7293 11.2721C23.7282 11.1722 23.7493 11.0693 23.7757 10.9564ZM27.6796 9.9092L27.652 9.87868C27.2998 9.94805 27.2361 9.95908 26.9125 10.0016L26.8887 10.0247C26.8876 10.0285 26.8866 10.0342 26.885 10.0395L26.8839 10.0342C26.643 10.5746 26.65 10.458 26.4539 10.8834C26.4528 10.864 26.4528 10.8519 26.4517 10.8313L26.4026 9.9092L26.3718 9.87868C26.0029 9.94805 25.9942 9.95908 25.6534 10.0016L25.6269 10.0247C25.6231 10.0357 25.6231 10.0478 25.6209 10.061L25.6231 10.0657C25.6657 10.2773 25.6555 10.2301 25.6982 10.5641C25.7181 10.728 25.7447 10.8928 25.7646 11.0547C25.7982 11.3256 25.817 11.4589 25.8581 11.8723C25.628 12.2415 25.5735 12.3812 25.352 12.7052L25.3535 12.7084L25.1975 12.9483C25.1797 12.9735 25.1635 12.9909 25.1408 12.9983C25.1159 13.0103 25.0836 13.0124 25.0386 13.0124H24.9522L24.8237 13.4278L25.2644 13.4352C25.5232 13.4342 25.6858 13.3165 25.7733 13.1584L26.0504 12.6967H26.046L26.0752 12.6642C26.2616 12.274 27.6796 9.9092 27.6796 9.9092ZM23.0282 15.3652H22.8412L23.5332 13.1401H23.7627L23.8356 12.9108L23.8427 13.1657C23.8341 13.3233 23.9616 13.463 24.2965 13.4399H24.6838L24.8171 13.0114H24.6714C24.5876 13.0114 24.5487 12.9908 24.5536 12.9467L24.5465 12.6874H23.8292V12.6887C23.5973 12.6934 22.9048 12.7104 22.7646 12.7467C22.5949 12.7892 22.4161 12.9142 22.4161 12.9142L22.4864 12.6847H21.8154L21.6756 13.1401L20.9744 15.3992H20.8383L20.7049 15.8246H22.0412L21.9964 15.9664H22.6549L22.6986 15.8246H22.8834L23.0282 15.3652ZM22.4799 13.5922C22.3724 13.6211 22.1725 13.7087 22.1725 13.7087L22.3503 13.1401H22.8834L22.7548 13.5544C22.7548 13.5544 22.5901 13.5638 22.4799 13.5922ZM22.4901 14.4046C22.4901 14.4046 22.3226 14.4251 22.2124 14.4493C22.1039 14.4813 21.9003 14.5821 21.9003 14.5821L22.084 13.9903H22.6198L22.4901 14.4046ZM22.1914 15.3705H21.6567L21.8117 14.871H22.3448L22.1914 15.3705ZM23.4792 13.9903H24.25L24.1392 14.339H23.3582L23.2409 14.7203H23.9243L23.4069 15.4287C23.3706 15.4807 23.3381 15.4991 23.302 15.5138C23.2658 15.5317 23.2182 15.5526 23.1632 15.5526H22.9736L22.8434 15.9702H23.3392C23.597 15.9702 23.7493 15.8562 23.8617 15.7066L24.2165 15.2344L24.2927 15.7138C24.3089 15.8036 24.3753 15.8562 24.4202 15.8766C24.4699 15.9008 24.5212 15.9424 24.5936 15.9486C24.6713 15.9518 24.7275 15.9543 24.7648 15.9543H25.0085L25.1548 15.487H25.0587C25.0035 15.487 24.9085 15.478 24.8923 15.4612C24.8761 15.4408 24.8761 15.4093 24.8674 15.3615L24.7901 14.881H24.4736L24.6124 14.7203H25.3919L25.5118 14.339H24.7901L24.9025 13.9903H25.622L25.7555 13.5602H23.6104L23.4792 13.9903ZM16.969 15.4676L17.1489 14.8857H17.8883L18.0234 14.4529H17.2834L17.3963 14.0948H18.1196L18.2536 13.6757H16.444L16.3127 14.0948H16.7239L16.6142 14.4529H16.202L16.0653 14.8931H16.4763L16.2365 15.6629C16.2042 15.7648 16.2518 15.8037 16.2819 15.851C16.3127 15.8971 16.344 15.9276 16.4142 15.945C16.4867 15.9607 16.5363 15.9701 16.6038 15.9701H17.4374L17.5859 15.4907L17.2164 15.54C17.1451 15.54 16.9475 15.5317 16.969 15.4676ZM17.0538 12.6821L16.8665 13.0113C16.8264 13.0833 16.7903 13.1279 16.7578 13.1485C16.7292 13.1658 16.6725 13.1731 16.5903 13.1731H16.4925L16.3619 13.5943H16.6866C16.8427 13.5943 16.9626 13.5386 17.0198 13.5108C17.0814 13.4788 17.0975 13.4971 17.1451 13.4524L17.2548 13.3601H18.2687L18.4032 12.9215H17.661L17.7906 12.6821H17.0538ZM18.5507 15.476C18.5334 15.4518 18.5458 15.4092 18.5723 15.3205L18.8494 14.4287H19.8352C19.9789 14.4267 20.0826 14.4251 20.1501 14.4204C20.2225 14.413 20.3014 14.3878 20.3872 14.3427C20.4759 14.2953 20.5212 14.2455 20.5595 14.1882C20.6023 14.1311 20.6708 14.006 20.7298 13.8132L21.0781 12.6847L20.0551 12.6905C20.0551 12.6905 19.7401 12.7357 19.6014 12.7856C19.4614 12.8412 19.2615 12.9966 19.2615 12.9966L19.3538 12.6873H18.7219L17.8371 15.54C17.8057 15.6508 17.7847 15.7312 17.7799 15.7795C17.7782 15.8315 17.8474 15.883 17.8922 15.9218C17.9451 15.9607 18.0234 15.9544 18.0985 15.9607C18.1775 15.9665 18.2897 15.9701 18.4448 15.9701H18.9304L19.0795 15.4807L18.6447 15.5207C18.5983 15.5207 18.5646 15.4965 18.5507 15.476ZM19.0282 13.8264H20.0636L19.9978 14.027C19.9886 14.0317 19.9664 14.0171 19.8611 14.0292H18.9644L19.0282 13.8264ZM19.2356 13.1537H20.2798L20.2047 13.3953C20.2047 13.3953 19.7125 13.3906 19.6337 13.4047C19.2869 13.463 19.0843 13.6432 19.0843 13.6432L19.2356 13.1537ZM20.021 14.6987C20.0124 14.7287 19.9989 14.747 19.9799 14.7607C19.9589 14.7739 19.9249 14.7786 19.8741 14.7786H19.7266L19.7353 14.5343H19.1216L19.0967 15.7285C19.0957 15.8147 19.1043 15.8646 19.1692 15.9045C19.234 15.9544 19.4338 15.9607 19.7028 15.9607H20.0874L20.2262 15.5137L19.8914 15.5316L19.7801 15.5379C19.7649 15.5316 19.7504 15.5258 19.7342 15.5101C19.7201 15.4965 19.6963 15.5048 19.7002 15.4187L19.7028 15.1125L20.0539 15.0984C20.2435 15.0984 20.3245 15.0385 20.3937 14.9813C20.4596 14.9266 20.4812 14.8637 20.5061 14.7786L20.565 14.5075H20.0825L20.021 14.6987Z" fill="#FEFEFE"/>
</svg>
