<svg width="20" height="24" viewBox="0 0 20 24" fill="none" xmlns="http://www.w3.org/2000/svg">
<path d="M10 12C12.7614 12 15 9.76142 15 7C15 4.23858 12.7614 2 10 2C7.23858 2 5 4.23858 5 7C5 9.76142 7.23858 12 10 12Z" stroke="#1E1E1E" stroke-width="2.1"/>
<path d="M15.0001 14H15.3521C16.0831 14.0002 16.789 14.2674 17.337 14.7513C17.885 15.2352 18.2374 15.9026 18.3281 16.628L18.7191 19.752C18.7542 20.0334 18.7291 20.3191 18.6455 20.5901C18.5618 20.8611 18.4214 21.1112 18.2337 21.3238C18.046 21.5364 17.8152 21.7066 17.5566 21.8232C17.2981 21.9398 17.0177 22.0001 16.7341 22H3.26606C2.98244 22.0001 2.70206 21.9398 2.44351 21.8232C2.18496 21.7066 1.95416 21.5364 1.76644 21.3238C1.57871 21.1112 1.43835 20.8611 1.35467 20.5901C1.27098 20.3191 1.24589 20.0334 1.28106 19.752L1.67106 16.628C1.76176 15.9022 2.11448 15.2346 2.66289 14.7506C3.21131 14.2667 3.91764 13.9997 4.64906 14H5.00006" stroke="#1E1E1E" stroke-width="2.1" stroke-linecap="round" stroke-linejoin="round"/>
</svg>
