<svg width="36" height="24" viewBox="0 0 36 24" fill="none" xmlns="http://www.w3.org/2000/svg">
<rect x="0.5" y="0.5" width="35" height="23" rx="5.5" fill="white" stroke="#D9D9D9"/>
<path fill-rule="evenodd" clip-rule="evenodd" d="M10.9288 16.2582H8.7479L7.11249 10.1924C7.03487 9.91334 6.87005 9.66666 6.62761 9.5504C6.02257 9.25823 5.35586 9.0257 4.62854 8.90843V8.67489H8.1418C8.62668 8.67489 8.99034 9.0257 9.05095 9.43313L9.8995 13.8086L12.0793 8.67489H14.1996L10.9288 16.2582ZM15.4118 16.2582H13.3521L15.0482 8.67489H17.1079L15.4118 16.2582ZM19.7726 10.7757C19.8332 10.3673 20.1968 10.1337 20.6211 10.1337C21.2878 10.0751 22.0141 10.1924 22.6202 10.4835L22.9838 8.85081C22.3777 8.61727 21.711 8.5 21.106 8.5C19.1069 8.5 17.6523 9.55041 17.6523 11.0082C17.6523 12.1173 18.6827 12.6996 19.41 13.0504C20.1968 13.4002 20.4999 13.6338 20.4393 13.9835C20.4393 14.5082 19.8332 14.7418 19.2281 14.7418C18.5008 14.7418 17.7735 14.5669 17.1079 14.2747L16.7442 15.9085C17.4715 16.1996 18.2584 16.3169 18.9857 16.3169C21.2272 16.3745 22.6202 15.3251 22.6202 13.75C22.6202 11.7665 19.7726 11.6502 19.7726 10.7757ZM29.8285 16.2582L28.1931 8.67489H26.4365C26.0728 8.67489 25.7092 8.90843 25.588 9.25823L22.5596 16.2582H24.6799L25.1031 15.1502H27.7082L27.9507 16.2582H29.8285ZM26.7395 10.7171L27.3446 13.5751H25.6486L26.7395 10.7171Z" fill="#172B85"/>
</svg>
