<svg width="16" height="16" viewBox="0 0 16 16" fill="none" xmlns="http://www.w3.org/2000/svg">
<path d="M8 2C4.6916 2 2 4.69141 2 8C2 9.16406 2.33379 10.2863 2.96738 11.2609L2.03242 13.4426C1.96797 13.5926 2.00156 13.7672 2.11719 13.8828C2.19375 13.9594 2.29609 14 2.4 14C2.45312 14 2.50684 13.9895 2.55762 13.9676L4.73926 13.0324C5.71367 13.6664 6.83594 14 8 14C11.3086 14 14 11.3086 14 8C14 4.69141 11.3086 2 8 2ZM11.0797 10.1477C11.0797 10.1477 10.5809 10.7875 10.2203 10.9371C9.30391 11.3164 8.01016 10.9371 6.53633 9.46367C5.06289 7.98984 4.6834 6.69609 5.06289 5.77969C5.2125 5.41875 5.85234 4.92031 5.85234 4.92031C6.02578 4.78516 6.29531 4.80195 6.45078 4.95742L7.17461 5.68125C7.33008 5.83672 7.33008 6.09141 7.17461 6.24688L6.72031 6.70078C6.72031 6.70078 6.53633 7.25313 7.64141 8.35859C8.74648 9.46367 9.29922 9.27969 9.29922 9.27969L9.75313 8.82539C9.90859 8.66992 10.1633 8.66992 10.3188 8.82539L11.0426 9.54922C11.198 9.70469 11.2148 9.97383 11.0797 10.1477Z" fill="white"/>
</svg>
