<svg width="17" height="17" viewBox="0 0 17 17" fill="none" xmlns="http://www.w3.org/2000/svg">
<g clip-path="url(#clip0_5066_2961)">
<path d="M16.0112 5.06085C15.8384 4.41824 15.3317 3.91168 14.6892 3.73865C13.5154 3.41748 8.82013 3.41748 8.82013 3.41748C8.82013 3.41748 4.12503 3.41748 2.95123 3.72647C2.32108 3.89932 1.80206 4.41833 1.62921 5.06085C1.32031 6.23456 1.32031 8.66867 1.32031 8.66867C1.32031 8.66867 1.32031 11.1151 1.62921 12.2765C1.80225 12.919 2.30872 13.4256 2.95132 13.5986C4.13739 13.9199 8.82031 13.9199 8.82031 13.9199C8.82031 13.9199 13.5154 13.9199 14.6892 13.6109C15.3318 13.4379 15.8384 12.9314 16.0114 12.2888C16.3202 11.1151 16.3202 8.68103 16.3202 8.68103C16.3202 8.68103 16.3326 6.23456 16.0112 5.06085ZM7.32526 10.9174V6.41995L11.2296 8.66867L7.32526 10.9174Z" fill="white"/>
</g>
<defs>
<clipPath id="clip0_5066_2961">
<rect width="16" height="16" fill="white" transform="translate(0.828125 0.810059)"/>
</clipPath>
</defs>
</svg>
