<svg width="132" height="26" viewBox="0 0 132 26" fill="none" xmlns="http://www.w3.org/2000/svg">
<g clip-path="url(#clip0_370_1971)">
<path d="M4.26819 0V11.2951H4.51926L12.4489 0H16.8008L8.07608 12.2328L16.8008 26H12.0304L4.51926 13.618L4.26819 13.682V26H0V0H4.26819Z" fill="black"/>
<path d="M31.0073 5.37061C34.9198 5.37061 36.1961 6.71323 36.1961 11.3804V26.0001H32.0325V11.8493C32.0325 8.56733 31.2165 7.54438 29.3544 7.54438H23.4125V26.0001H19.207V5.37061H31.0073Z" fill="black"/>
<path d="M50.695 5.37061C54.3983 5.37061 55.8838 6.81979 55.8838 11.828V19.5214C55.8838 24.5509 54.3983 25.9788 50.695 25.9788H43.3094C39.5433 25.9788 38.1206 24.5296 38.1206 19.5214V11.8493C38.1206 6.8411 39.5433 5.39192 43.3094 5.39192H50.695V5.37061ZM42.3469 19.1804C42.3469 23.0378 43.1629 23.8477 45.7992 23.8477H48.2052C50.7996 23.8477 51.6156 23.1657 51.6156 19.6067V11.8067C51.6156 8.6952 50.8624 7.52306 48.9375 7.52306H45.0878C43.1629 7.52306 42.3679 8.67388 42.3679 11.8067V19.1804H42.3469Z" fill="black"/>
<path d="M60.9265 0L62.4748 22.6115H62.6422L65.1529 7.0541H67.4334L69.9232 22.6115H70.0906L71.6389 0H75.8024L72.8314 26H68.1657L66.3245 14.641H66.199L64.3997 26H59.7549L56.7002 0H60.9265Z" fill="black"/>
<path d="M89.925 5.37061C92.7286 5.37061 94.1514 7.3952 94.1514 11.487C94.1514 15.4083 92.7286 17.369 89.925 17.369H81.3259V19.5854C81.3259 23.1657 82.1419 23.8263 84.7362 23.8263H92.1847V26.0001H82.2255C78.5641 26.0001 77.0786 24.5509 77.0786 19.5427V11.8706C77.0786 6.92634 78.5641 5.37061 82.2255 5.37061H89.925ZM81.3259 15.2165H87.8955C89.8204 15.2165 90.5736 14.4067 90.5736 11.487C90.5736 8.50339 89.8832 7.52306 87.8955 7.52306H84.0458C82.1419 7.52306 81.3259 8.60995 81.3259 11.8067V15.2165Z" fill="black"/>
<path d="M108.378 5.37061C112.291 5.37061 113.588 6.64929 113.588 11.4444V26.0001H100.574C97.5197 26.0001 96.1807 23.7198 96.1807 19.8837C96.1807 15.7919 97.436 13.6821 100.574 13.6821H109.32V11.0608C109.32 8.46077 108.63 7.52306 106.6 7.52306H98.9634V5.37061H108.378ZM103.692 15.7919C101.16 15.7919 100.177 16.8149 100.177 19.7559C100.177 22.5903 100.993 23.8477 103.232 23.8477H109.299V15.7919H103.692Z" fill="black"/>
<path d="M132 5.37061V7.52306H124.447C121.267 7.52306 120.66 7.94929 120.66 12.0837V26.0001H116.371V11.6149C116.371 7.45913 118.798 5.37061 123.694 5.37061H132Z" fill="black"/>
</g>
<defs>
<clipPath id="clip0_370_1971">
<rect width="132" height="26" fill="white"/>
</clipPath>
</defs>
</svg>
